<svg width="256" height="256" viewBox="0 0 256 256" fill="none" xmlns="http://www.w3.org/2000/svg">
<g clip-path="url(#clip0_1_2)">
<rect width="256" height="256" rx="20" fill="white"/>
<path d="M194.006 29H66.0062V209L126.766 132L194.006 209V29Z" fill="#6F00FF" stroke="black" stroke-width="6" stroke-linejoin="round"/>
<path d="M66.0062 45H52.5062M52.5062 45V223M52.5062 45C52.5062 45 52.5062 42 45.0062 42C37.5062 42 37.0062 45 37.0062 45M52.5062 45C52.5062 45 52.5062 49.5 45.0062 49.5C37.5062 49.5 37.0062 45 37.0062 45M52.5062 223H218.506V45H202.006M52.5062 223C52.5062 223 52.5062 226.5 44.5062 226.5C36.5062 226.5 37.0062 223 37.0062 223V45" stroke="black" stroke-width="6" stroke-linecap="round" stroke-linejoin="round"/>
<path d="M110.011 115V59.166H131.073C134.78 59.166 137.611 59.3438 139.566 59.6992C142.308 60.1562 144.606 61.0322 146.459 62.3271C148.313 63.5967 149.798 65.3867 150.915 67.6973C152.058 70.0078 152.629 72.5469 152.629 75.3145C152.629 80.0625 151.118 84.0869 148.097 87.3877C145.076 90.6631 139.617 92.3008 131.72 92.3008H117.4V115H110.011ZM117.4 85.7119H131.834C136.608 85.7119 139.997 84.8232 142.003 83.0459C144.009 81.2686 145.012 78.7676 145.012 75.543C145.012 73.207 144.415 71.2139 143.222 69.5635C142.054 67.8877 140.505 66.7832 138.576 66.25C137.331 65.9199 135.034 65.7549 131.682 65.7549H117.4V85.7119Z" fill="white"/>
</g>
<defs>
<clipPath id="clip0_1_2">
<rect width="256" height="256" fill="white"/>
</clipPath>
</defs>
</svg>
